<?xml version="1.0" encoding="UTF-8"?>
<!-- Generated by Pixelmator Pro 3.6.18 -->
<svg width="1229" height="691" viewBox="0 0 1229 691" xmlns="http://www.w3.org/2000/svg">
    <linearGradient id="linearGradient1" x1="372.454233" y1="95.449302" x2="857.545767" y2="594.550698" gradientUnits="userSpaceOnUse">
        <stop offset="0" stop-color="#66a5ff" stop-opacity="1"/>
        <stop offset="1" stop-color="#007dff" stop-opacity="1"/>
    </linearGradient>
    <path id="--" fill="url(#linearGradient1)" fill-rule="evenodd" stroke="none" d="M 267 693 L 963 693 L 963 -3 L 267 -3 Z"/>
    <filter id="filter1" x="0" y="0" width="1229" height="691" filterUnits="userSpaceOnUse" primitiveUnits="userSpaceOnUse" color-interpolation-filters="sRGB">
        <feFlood flood-color="#000000" flood-opacity="0.456868"/>
        <feComposite in2="SourceGraphic" operator="out"/>
        <feGaussianBlur stdDeviation="7"/>
        <feOffset dx="4.940741" dy="3.404274"/>
        <feComposite in2="SourceGraphic" operator="atop"/>
    </filter>
    <path id="JB" fill="#ffffff" fill-rule="evenodd" stroke="none" filter="url(#filter1)" d="M 656.48053 244.78006 C 681.851074 232.743286 707.66156 242.749207 720.382385 269.561401 L 727.460876 284.481079 C 733.00061 296.15741 733.923096 310.554108 730.063354 322.451508 L 730.273132 322.351959 C 744.240234 325.261719 754.388245 335.281464 760.133118 347.390198 L 765.570251 358.850281 C 780.137634 389.554596 771.039734 415.857574 746.088623 427.695404 L 664.945068 466.193176 L 620.174255 371.827759 C 626.811584 398.434601 614.454468 426.802582 589.690735 438.551483 L 576.900635 444.619629 C 550.062439 457.352722 520.090027 445.612793 504.960144 419.67865 L 537.249878 404.35907 C 543.757813 412.662079 552.072815 417.193909 561.927368 412.518494 L 573.040161 407.246155 C 585.201172 401.47644 588.770996 386.802765 582.718323 374.045319 L 521.679016 245.389954 L 554.178406 229.970947 L 578.710083 281.677521 L 656.48053 244.78006 Z M 724.111633 396.53302 C 733.756592 391.957062 737.415527 379.095306 732.081055 367.851471 L 731.157715 365.905426 C 725.925842 354.877869 713.649536 349.576508 704.004578 354.152466 L 659.553772 375.24173 L 679.660828 417.622284 L 724.111633 396.53302 Z M 666.720459 280.98111 L 624.366333 301.075623 L 644.781189 344.104919 L 687.135315 324.010437 C 696.570496 319.533997 700.229492 306.672302 694.997559 295.644653 L 693.66394 292.83374 C 688.534607 282.022339 676.15564 276.5047 666.720459 280.98111 Z"/>
</svg>
