<?xml version="1.0" encoding="UTF-8"?>
<!-- Generated by Pixelmator Pro 3.7 -->
<svg width="777" height="708" viewBox="0 0 777 708" xmlns="http://www.w3.org/2000/svg">
    <g id="g1">
        <g id="g6">
            <path id="path9" fill="#00d674" fill-rule="evenodd" stroke="none" d="M 685.744568 234.524353 L 685.744568 108.33429 C 685.744568 101.082947 682.854919 94.104126 677.702637 88.951843 L 596.792664 8.014648 C 591.64032 2.889648 584.688904 0 577.410217 0 L 108.33429 0 C 101.055649 0 94.076904 2.889648 88.951889 8.014648 L 8.041931 88.951843 C 2.889631 94.104126 -1e-05 101.082947 -1e-05 108.33429 L -1e-05 577.410217 C -1e-05 584.688904 2.889631 591.64032 8.041931 596.792664 L 88.951889 677.729858 C 94.076904 682.854797 101.055649 685.744446 108.33429 685.744446 L 577.410217 685.744446 C 584.688904 685.744446 591.64032 682.854797 596.792664 677.729858 L 677.702637 596.792664 C 682.882202 591.64032 685.744568 584.688904 685.744568 577.410217 L 685.744568 451.192902 C 685.744568 443.941528 688.634216 436.962769 693.786499 431.837738 L 772.951782 352.645203 C 778.349365 347.247559 778.349365 338.496887 772.951782 333.099213 L 693.786499 253.93399 C 688.634216 248.754425 685.744568 241.802917 685.744568 234.524292"/>
            <path id="path10" fill="#ffffff" fill-rule="evenodd" stroke="none" d="M 284.9841 320.423004 C 288.527985 305.184235 295.016052 292.426208 304.230164 282.448761 C 314.889099 270.917419 328.901154 265.32901 347.029541 265.32901 C 364.885345 265.32901 378.897369 270.862946 389.801697 282.285187 C 399.179352 292.09906 405.149506 304.911621 407.575714 320.450256 L 284.984039 320.450256 Z M 412.237335 237.632111 C 394.217957 223.974457 371.891388 217.050232 345.857361 217.050232 C 310.58194 217.050232 281.985382 230.162659 260.885529 256.087646 C 240.167343 281.49469 229.671982 313.471558 229.671982 351.064148 C 229.671982 389.692627 241.094223 421.533203 263.584381 445.768036 C 286.210785 470.193665 316.879181 482.570068 354.635315 482.570068 C 393.672729 482.570068 427.039948 466.404419 453.83725 434.454803 L 458.49884 428.920868 L 422.1875 395.417389 L 417.0625 401.769165 C 399.533813 423.632294 379.115509 434.264008 354.635345 434.264008 C 333.208374 434.264008 316.443024 427.994019 303.439667 415.09967 C 292.017395 403.759216 284.984131 388.166046 282.476105 368.701874 L 459.671082 368.701874 L 460.352631 344.685089 C 460.352631 323.966919 456.835999 304.284668 449.857239 286.101715 C 442.687683 267.455383 430.038666 251.12619 412.237366 237.632111 Z"/>
        </g>
    </g>
</svg>
