<?xml version="1.0" encoding="UTF-8"?>
<!-- Generated by Pixelmator Pro 3.7 -->
<svg width="1330" height="1215" viewBox="0 0 1330 1215" xmlns="http://www.w3.org/2000/svg">
    <clipPath id="clipPath1">
        <path d="M -184.943805 -172.004979 L 1506.171979 -172.004979 L 1506.171979 1519.110805 L -184.943805 1519.110805 Z"/>
    </clipPath>
    <g id="g1" clip-path="url(#clipPath1)">
        <path id="path1" fill="#fbbc04" stroke="none" d="M 283.537567 1118.612305 L 83.985886 1318.206299 C 68.593513 1333.541382 43.698254 1333.541382 28.305902 1318.206299 L 15.960744 1305.861206 C 0.653707 1290.473633 0.653707 1265.61084 15.960744 1250.223389 L 215.512421 1050.629517 C 230.909653 1035.266235 255.837448 1035.266235 271.23468 1050.629517 L 283.537567 1062.932251 C 290.934265 1070.309082 295.091339 1080.325928 295.091339 1090.772339 C 295.091339 1101.218628 290.934265 1111.235718 283.537567 1118.612305 Z"/>
        <path id="path2" fill="#4285f4" stroke="none" d="M 819.156189 1202.026611 L 1074.599243 1202.026611 C 1142.346558 1202.037842 1207.321655 1175.127441 1255.222168 1127.218872 C 1303.122803 1079.310425 1330.022461 1014.330811 1330 946.583557 L 1330 259.567749 C 1330.011108 191.827881 1303.106567 126.859131 1255.207275 78.959717 C 1207.307861 31.060303 1142.339233 4.155762 1074.599243 4.166992 C 1006.85199 4.144531 941.872375 31.044189 893.963867 78.944824 C 846.05542 126.845337 819.144958 191.820496 819.156189 259.567749 L 819.156189 1202.026611 Z"/>
        <path id="path3" fill="#fbbc04" stroke="none" d="M 396.377258 1202.026611 C 464.131836 1202.049072 529.117798 1175.143555 577.027466 1127.233765 C 624.937256 1079.324097 651.842712 1014.338135 651.820251 946.583557 C 651.831482 878.836304 624.921082 813.861145 577.012573 765.960571 C 529.104065 718.060059 464.124512 691.160339 396.377258 691.1828 C 328.629974 691.160339 263.650452 718.060059 215.741913 765.960571 C 167.83342 813.861145 140.922989 878.836304 140.934219 946.583557 C 140.911774 1014.338135 167.817215 1079.324097 215.726959 1127.233765 C 263.636688 1175.143555 328.62265 1202.049072 396.377258 1202.026611 Z"/>
        <path id="path4" fill="#34a853" stroke="none" d="M 997.568848 1202.026611 L 748.678955 1202.026611 C 680.931641 1202.037842 615.956543 1175.127441 568.055969 1127.218872 C 520.155457 1079.310425 493.255768 1014.330811 493.278168 946.583557 L 493.278168 611.911743 C 493.255768 544.16449 520.155457 479.184998 568.055969 431.276428 C 615.956543 383.36792 680.931641 356.45752 748.678955 356.468689 C 816.433533 356.446289 881.419495 383.351685 929.329224 431.261414 C 977.238953 479.171204 1004.144409 544.157166 1004.122009 611.911743 L 1004.122009 1195.515869 C 1004.122009 1199.111694 1001.20697 1202.026611 997.611206 1202.026611 Z"/>
        <path id="path5" fill="#1967d2" stroke="none" d="M 1004.122009 1195.515869 L 1004.122009 611.911743 C 1004.112854 497.985413 928.660645 397.836487 819.156189 366.404053 L 819.156189 1202.026611 L 997.568848 1202.026611 C 999.30304 1202.037842 1000.96991 1201.356812 1002.200134 1200.134644 C 1003.430237 1198.912354 1004.122009 1197.249878 1004.122009 1195.515869 Z"/>
        <path id="path6" fill="#ea4335" stroke="none" d="M 651.820251 951.53009 C 651.836548 847.87616 589.193237 754.49585 493.278168 715.196655 L 493.278168 951.53009 C 493.278168 1024.248047 523.718201 1089.90564 572.549194 1136.411255 C 623.222412 1088.272461 651.884949 1021.423767 651.820251 951.53009 Z"/>
    </g>
</svg>
